# xmcd
#
# Track frame offsets:
# 150
# 16788
# 30126
# 46743
# 60977
# 77082
# 91307
# 103979
# 116238
# 137478
# 155029
# 173513
#
# Disc length: 2537 seconds
#
#
# Revision: 0
# Processed by: cddbd v1.5.2PL0 Copyright (c) Steve Scherf et al.
# Submitted via: Nero 7, 11, 10, 0 
#
DISCID=8609e70c
DTITLE=Bill Lyerly - Requiem Mess
DYEAR=2001
DGENRE=Blues
TTITLE0=Lonesome Whistle
TTITLE1=Widow And The Taxman
TTITLE2=Daddy's Got To Pay
TTITLE3=Half Lap To Go
TTITLE4=Down On My Luck
TTITLE5=Dark Glasses
TTITLE6=Trying To Drink You Off My Mind
TTITLE7=Hangmen
TTITLE8=You Can't Teach Lonesome
TTITLE9=When I Ride
TTITLE10=Freeze Framed
TTITLE11=Ain't Goin' Down That Road
EXTD=
EXTT0=Lonesome Whistle
EXTT1=Widow And The Taxman
EXTT2=Daddy's Got To Pay
EXTT3=Half Lap To Go
EXTT4=Down On My Luck
EXTT5=Dark Glasses
EXTT6=Trying To Drink You Off My Mind
EXTT7=Hangmen
EXTT8=You Can't Teach Lonesome
EXTT9=When I Ride
EXTT10=Freeze Framed
EXTT11=Ain't Goin' Down That Road
PLAYORDER=
